<svg xmlns="http://www.w3.org/2000/svg" width="1800" height="2500" viewBox="0 0 1800 2500" role="img" aria-labelledby="title description">
  <title id="title">WGDSS Comprehensive Top-Down Data and Logic Flow</title>
  <desc id="description">A top-down visual showing startup, live weather and simulated grid acquisition, SCADA calibration, probability and recommendation logic, persistence, API response, dashboard rendering, and independent map overlays.</desc>

  <defs>
    <linearGradient id="bg" x1="0" y1="0" x2="0" y2="1">
      <stop offset="0" stop-color="#071426"/>
      <stop offset="0.52" stop-color="#020b19"/>
      <stop offset="1" stop-color="#020617"/>
    </linearGradient>
    <linearGradient id="cyanFill" x1="0" y1="0" x2="1" y2="1">
      <stop offset="0" stop-color="#083344"/>
      <stop offset="1" stop-color="#10243d"/>
    </linearGradient>
    <linearGradient id="greenFill" x1="0" y1="0" x2="1" y2="1">
      <stop offset="0" stop-color="#052e2b"/>
      <stop offset="1" stop-color="#123044"/>
    </linearGradient>
    <linearGradient id="roseFill" x1="0" y1="0" x2="1" y2="1">
      <stop offset="0" stop-color="#32152b"/>
      <stop offset="1" stop-color="#21172f"/>
    </linearGradient>
    <filter id="shadow" x="-20%" y="-20%" width="140%" height="150%">
      <feDropShadow dx="0" dy="8" stdDeviation="10" flood-color="#000814" flood-opacity="0.58"/>
    </filter>
    <filter id="glow" x="-50%" y="-50%" width="200%" height="200%">
      <feGaussianBlur stdDeviation="3.5" result="blur"/>
      <feMerge>
        <feMergeNode in="blur"/>
        <feMergeNode in="SourceGraphic"/>
      </feMerge>
    </filter>
    <marker id="arrow" markerWidth="12" markerHeight="12" refX="10" refY="6" orient="auto">
      <path d="M0,0 L12,6 L0,12 z" fill="#67e8f9"/>
    </marker>
    <marker id="arrowGreen" markerWidth="12" markerHeight="12" refX="10" refY="6" orient="auto">
      <path d="M0,0 L12,6 L0,12 z" fill="#34d399"/>
    </marker>
    <marker id="arrowAmber" markerWidth="12" markerHeight="12" refX="10" refY="6" orient="auto">
      <path d="M0,0 L12,6 L0,12 z" fill="#fbbf24"/>
    </marker>
    <marker id="arrowPurple" markerWidth="12" markerHeight="12" refX="10" refY="6" orient="auto">
      <path d="M0,0 L12,6 L0,12 z" fill="#c084fc"/>
    </marker>
    <style>
      .stage { fill:#071426; fill-opacity:.78; stroke:#164e63; stroke-width:1.5; }
      .box { fill:#0f172a; stroke:#334155; stroke-width:1.5; }
      .live { fill:url(#cyanFill); stroke:#0891b2; stroke-width:1.6; }
      .sim { fill:#292219; stroke:#d97706; stroke-width:1.6; }
      .cal { fill:url(#roseFill); stroke:#db2777; stroke-width:1.6; }
      .logic { fill:url(#greenFill); stroke:#10b981; stroke-width:1.9; }
      .visual { fill:#1f1935; stroke:#8b5cf6; stroke-width:1.6; }
      .output { fill:#092d2c; stroke:#14b8a6; stroke-width:1.7; }
      .warn { fill:#31200c; stroke:#f59e0b; stroke-width:1.5; }
      .title { fill:#f8fafc; font:750 34px Inter,Segoe UI,sans-serif; }
      .subtitle { fill:#94a3b8; font:400 17px Inter,Segoe UI,sans-serif; }
      .stageNo { fill:#67e8f9; font:800 14px Inter,Segoe UI,sans-serif; letter-spacing:2px; }
      .stageTitle { fill:#e0f2fe; font:750 22px Inter,Segoe UI,sans-serif; }
      .boxTitle { fill:#f8fafc; font:700 18px Inter,Segoe UI,sans-serif; }
      .boxText { fill:#cbd5e1; font:400 14px Inter,Segoe UI,sans-serif; }
      .small { fill:#94a3b8; font:400 12px Inter,Segoe UI,sans-serif; }
      .tag { font:750 11px Inter,Segoe UI,sans-serif; letter-spacing:1px; }
      .center { text-anchor:middle; }
      .line { fill:none; stroke:#67e8f9; stroke-width:2.4; marker-end:url(#arrow); }
      .lineGreen { fill:none; stroke:#34d399; stroke-width:2.5; marker-end:url(#arrowGreen); }
      .lineAmber { fill:none; stroke:#fbbf24; stroke-width:2.3; marker-end:url(#arrowAmber); }
      .linePurple { fill:none; stroke:#c084fc; stroke-width:2.2; stroke-dasharray:9 7; marker-end:url(#arrowPurple); }
      .thin { fill:none; stroke:#475569; stroke-width:1.6; marker-end:url(#arrow); }
      .divider { stroke:#1e3a5f; stroke-width:1; }
    </style>
  </defs>

  <rect width="1800" height="2500" fill="url(#bg)"/>
  <circle cx="1500" cy="110" r="360" fill="#0891b2" opacity=".04"/>
  <circle cx="240" cy="2350" r="410" fill="#14b8a6" opacity=".035"/>

  <text class="title" x="70" y="60">T&amp;TEC WGDSS — Comprehensive Program Flow</text>
  <text class="subtitle" x="70" y="94">Top-down data movement, processing logic, safeguards, persistence, and operator presentation</text>

  <!-- Stage 1 -->
  <rect class="stage" x="55" y="130" width="1690" height="225" rx="22"/>
  <text class="stageNo" x="82" y="166">STAGE 01</text>
  <text class="stageTitle" x="82" y="196">APPLICATION STARTUP</text>

  <g filter="url(#shadow)">
    <rect class="box" x="110" y="220" width="355" height="95" rx="15"/>
    <text class="boxTitle" x="287" y="254" text-anchor="middle">Operator Browser</text>
    <text class="boxText center" x="287" y="281">localhost:5173</text>
    <text class="small center" x="287" y="302">React + Vite control-room client</text>
  </g>
  <g filter="url(#shadow)">
    <rect class="live" x="535" y="220" width="355" height="95" rx="15"/>
    <text class="boxTitle center" x="712" y="254">Frontend Startup</text>
    <text class="boxText center" x="712" y="281">main.tsx → Dashboard.tsx</text>
    <text class="small center" x="712" y="302">Initialize state and five-minute refresh</text>
  </g>
  <g filter="url(#shadow)">
    <rect class="live" x="960" y="220" width="355" height="95" rx="15"/>
    <text class="boxTitle center" x="1137" y="254">Backend Startup</text>
    <text class="boxText center" x="1137" y="281">Uvicorn → FastAPI lifespan</text>
    <text class="small center" x="1137" y="302">CORS, logging, routes, database</text>
  </g>
  <g filter="url(#shadow)">
    <rect class="cal" x="1385" y="220" width="305" height="95" rx="15"/>
    <text class="boxTitle center" x="1537" y="254">Optional Auto-Import</text>
    <text class="boxText center" x="1537" y="281">ZIP/XLSX calibration archive</text>
    <text class="small center" x="1537" y="302">SCADA samples + day profiles</text>
  </g>

  <path class="line" d="M465 267 H525"/>
  <path class="line" d="M890 267 H950"/>
  <path class="linePurple" d="M1315 267 H1375"/>

  <!-- Stage 2 -->
  <rect class="stage" x="55" y="395" width="1690" height="395" rx="22"/>
  <text class="stageNo" x="82" y="431">STAGE 02</text>
  <text class="stageTitle" x="82" y="461">SNAPSHOT REQUEST AND CONCURRENT DATA ACQUISITION</text>

  <g filter="url(#shadow)">
    <rect class="output" x="590" y="480" width="620" height="78" rx="15"/>
    <text class="boxTitle center" x="900" y="512">GET /api/dashboard/snapshot?force_refresh=true</text>
    <text class="boxText center" x="900" y="537">DashboardService launches weather, forecast, grid, and generation work concurrently</text>
  </g>

  <g filter="url(#shadow)">
    <rect class="live" x="95" y="610" width="505" height="135" rx="16"/>
    <text class="boxTitle" x="120" y="642">WeatherService</text>
    <text class="boxText" x="120" y="672">Current: Open-Meteo primary → configured fallback</text>
    <text class="boxText" x="120" y="697">Forecast: Best Match + MET Norway + NOAA GFS</text>
    <text class="boxText" x="120" y="722">Retry, quota guard, 5-minute cache, normalization</text>
  </g>
  <g filter="url(#shadow)">
    <rect class="sim" x="648" y="610" width="505" height="135" rx="16"/>
    <text class="boxTitle" x="673" y="642">GridService → MockGridProvider</text>
    <text class="boxText" x="673" y="672">Trinidad clock selects demand period and MW level</text>
    <text class="boxText" x="673" y="697">Generation-unit outputs and available capacity</text>
    <text class="boxText" x="673" y="722">Normalize demand, generation, reserve, status</text>
  </g>
  <g filter="url(#shadow)">
    <rect class="cal" x="1200" y="610" width="505" height="135" rx="16"/>
    <text class="boxTitle" x="1225" y="642">CalibrationService</text>
    <text class="boxText" x="1225" y="672">Read imported SCADA temperature and profiles</text>
    <text class="boxText" x="1225" y="697">Build Hot, Typical, and Rainy 24-hour curves</text>
    <text class="boxText" x="1225" y="722">Select regime using live weather similarity</text>
  </g>

  <path class="line" d="M900 558 V580 H347 V600"/>
  <path class="lineAmber" d="M900 558 V600"/>
  <path class="linePurple" d="M900 558 V580 H1452 V600"/>
  <path class="line" d="M900 745 V810"/>

  <!-- Stage 3 -->
  <rect class="stage" x="55" y="830" width="1690" height="300" rx="22"/>
  <text class="stageNo" x="82" y="866">STAGE 03</text>
  <text class="stageTitle" x="82" y="896">NORMALIZATION, CONSENSUS, AND SCENARIO ENRICHMENT</text>

  <g filter="url(#shadow)">
    <rect class="live" x="100" y="925" width="480" height="150" rx="16"/>
    <text class="boxTitle" x="125" y="958">Normalized Weather Bundle</text>
    <text class="boxText" x="125" y="987">Temperature · humidity · rainfall · cloud cover</text>
    <text class="boxText" x="125" y="1012">Wind speed/direction · pressure · condition</text>
    <text class="boxText" x="125" y="1037">Hourly consensus, spread, confidence, source names</text>
    <rect x="125" y="1048" width="150" height="20" rx="10" fill="#083d45" stroke="#22d3ee"/>
    <text class="tag" x="143" y="1062" fill="#a5f3fc">LIVE WEATHER</text>
  </g>
  <g filter="url(#shadow)">
    <rect class="sim" x="660" y="925" width="480" height="150" rx="16"/>
    <text class="boxTitle" x="685" y="958">Normalized Grid Bundle</text>
    <text class="boxText" x="685" y="987">Current demand · current generation</text>
    <text class="boxText" x="685" y="1012">Available capacity · reserve margin · status</text>
    <text class="boxText" x="685" y="1037">Demand period + generation-unit readiness</text>
    <rect x="685" y="1048" width="180" height="20" rx="10" fill="#3a2d13" stroke="#f59e0b"/>
    <text class="tag" x="701" y="1062" fill="#fde68a">V1 SIMULATED GRID</text>
  </g>
  <g filter="url(#shadow)">
    <rect class="cal" x="1220" y="925" width="480" height="150" rx="16"/>
    <text class="boxTitle" x="1245" y="958">Selected Calibration Context</text>
    <text class="boxText" x="1245" y="987">Selected SCADA temperature at current hour</text>
    <text class="boxText" x="1245" y="1012">Current/next profile demand and spinning reserve</text>
    <text class="boxText" x="1245" y="1037">Scenario confidence, reason, and provenance</text>
    <rect x="1245" y="1048" width="188" height="20" rx="10" fill="#3b1935" stroke="#f472b6"/>
    <text class="tag" x="1261" y="1062" fill="#fbcfe8">HISTORICAL SCADA</text>
  </g>

  <path class="lineGreen" d="M340 1075 V1162 H790"/>
  <path class="lineGreen" d="M900 1075 V1162"/>
  <path class="lineGreen" d="M1460 1075 V1162 H1010"/>

  <!-- Stage 4 -->
  <rect class="stage" x="55" y="1150" width="1690" height="545" rx="22"/>
  <text class="stageNo" x="82" y="1186">STAGE 04</text>
  <text class="stageTitle" x="82" y="1216">PROBABILITY, DEMAND FORECAST, RISK, AND RECOMMENDATION</text>

  <g filter="url(#shadow)">
    <rect class="box" x="95" y="1260" width="455" height="365" rx="17"/>
    <text class="boxTitle" x="120" y="1294">Probability Modifiers</text>
    <text class="small" x="120" y="1318">STARTING SCORE = 0.25</text>
    <line class="divider" x1="120" y1="1332" x2="525" y2="1332"/>
    <text class="boxText" x="120" y="1362">+ up to 0.22  Temperature ≥ 30 C</text>
    <text class="boxText" x="120" y="1393">+ up to 0.18  Humidity ≥ 70%</text>
    <text class="boxText" x="120" y="1424">− up to 0.12  Rainfall ≥ 2 mm/hr</text>
    <text class="boxText" x="120" y="1455">− up to 0.06  Cloud cover ≥ 50%</text>
    <text class="boxText" x="120" y="1486">+ up to 0.35  Demand above generation</text>
    <text class="boxText" x="120" y="1517">+ up to 0.30  Reserve below 30%</text>
    <text class="boxText" x="120" y="1548">+ 0.20  Demand above capacity</text>
    <text class="boxText" x="120" y="1579">+ scenario demand and low spin pressure</text>
    <text class="small" x="120" y="1607">Final score is clamped to 0.00–1.00</text>
  </g>

  <g filter="url(#shadow)">
    <rect class="logic" x="620" y="1260" width="560" height="365" rx="18"/>
    <text class="boxTitle center" x="900" y="1300">RecommendationEngine.evaluate()</text>
    <text class="boxText center" x="900" y="1330">Prefer selected SCADA temperature; otherwise use live temperature</text>

    <rect x="660" y="1360" width="480" height="64" rx="12" fill="#071f25" stroke="#14b8a6"/>
    <text class="boxText center" x="900" y="1387">1. Evaluate weather and grid pressure</text>
    <text class="small center" x="900" y="1408">Record every triggered condition as an explainability factor</text>

    <rect x="660" y="1442" width="480" height="64" rx="12" fill="#071f25" stroke="#14b8a6"/>
    <text class="boxText center" x="900" y="1469">2. Forecast demand at 30 and 60 minutes</text>
    <text class="small center" x="900" y="1490">Weather pressure + horizon modifier + scenario blend + 92% floor</text>

    <rect x="660" y="1524" width="480" height="64" rx="12" fill="#071f25" stroke="#14b8a6"/>
    <text class="boxText center" x="900" y="1551">3. Classify risk and select operator action</text>
    <text class="small center" x="900" y="1572">Reserve below 15% forces HIGH / START ADDITIONAL TURBINE</text>

    <rect x="748" y="1597" width="304" height="20" rx="10" fill="#063b36" stroke="#34d399"/>
    <text class="tag center" x="900" y="1611" fill="#a7f3d0">RULE-BASED · EXPLAINABLE · NO AUTO-CONTROL</text>
  </g>

  <g filter="url(#shadow)">
    <rect class="output" x="1250" y="1260" width="455" height="365" rx="17"/>
    <text class="boxTitle" x="1275" y="1294">Decision Outputs</text>
    <line class="divider" x1="1275" y1="1314" x2="1680" y2="1314"/>
    <text class="boxText" x="1275" y="1348">Probability score: 0.00–1.00</text>
    <text class="boxText" x="1275" y="1382">Risk: LOW · MEDIUM · HIGH</text>
    <text class="boxText" x="1275" y="1416">Forecast demand: 30m + 60m</text>
    <text class="boxText" x="1275" y="1450">Action:</text>
    <text class="small" x="1297" y="1475">NO ACTION REQUIRED</text>
    <text class="small" x="1297" y="1498">MONITOR CONDITIONS</text>
    <text class="small" x="1297" y="1521">START ADDITIONAL TURBINE</text>
    <text class="boxText" x="1275" y="1560">Reasoning factors from triggered rules</text>
    <text class="small" x="1275" y="1592">Guidance supports an operator decision;</text>
    <text class="small" x="1275" y="1612">it does not dispatch generation automatically.</text>
  </g>

  <path class="lineGreen" d="M550 1442 H610"/>
  <path class="lineGreen" d="M1180 1442 H1240"/>
  <path class="lineGreen" d="M900 1625 V1728"/>

  <!-- Stage 5 -->
  <rect class="stage" x="55" y="1715" width="1690" height="310" rx="22"/>
  <text class="stageNo" x="82" y="1751">STAGE 05</text>
  <text class="stageTitle" x="82" y="1781">SNAPSHOT ASSEMBLY, QUALITY GATES, AND PERSISTENCE</text>

  <g filter="url(#shadow)">
    <rect class="box" x="95" y="1820" width="365" height="145" rx="16"/>
    <text class="boxTitle center" x="277" y="1853">Pydantic Validation</text>
    <text class="boxText center" x="277" y="1882">Typed weather, grid, forecast,</text>
    <text class="boxText center" x="277" y="1905">probability, recommendation,</text>
    <text class="boxText center" x="277" y="1928">calibration, and quality DTOs</text>
  </g>
  <g filter="url(#shadow)">
    <rect class="warn" x="510" y="1820" width="365" height="145" rx="16"/>
    <text class="boxTitle center" x="692" y="1853">Data Quality</text>
    <text class="boxText center" x="692" y="1882">Freshness · fallback · source count</text>
    <text class="boxText center" x="692" y="1905">calibration loaded · grid simulated</text>
    <text class="boxText center" x="692" y="1928">GOOD or DEGRADED with notes</text>
  </g>
  <g filter="url(#shadow)">
    <rect class="cal" x="925" y="1820" width="365" height="145" rx="16"/>
    <text class="boxTitle center" x="1107" y="1853">Non-Blocking Persistence</text>
    <text class="boxText center" x="1107" y="1882">weather_data · grid_data</text>
    <text class="boxText center" x="1107" y="1905">probability_results</text>
    <text class="small center" x="1107" y="1933">Database failure degrades quality, not delivery</text>
  </g>
  <g filter="url(#shadow)">
    <rect class="output" x="1340" y="1820" width="365" height="145" rx="16"/>
    <text class="boxTitle center" x="1522" y="1853">Dashboard Snapshot JSON</text>
    <text class="boxText center" x="1522" y="1882">One response for the complete UI</text>
    <text class="boxText center" x="1522" y="1905">Avoids frontend request fan-out</text>
    <text class="small center" x="1522" y="1933">Failure → error state and manual retry</text>
  </g>

  <path class="line" d="M460 1892 H500"/>
  <path class="linePurple" d="M875 1892 H915"/>
  <path class="lineGreen" d="M1290 1892 H1330"/>
  <path class="lineGreen" d="M1522 1965 V2058 H900"/>

  <!-- Stage 6 -->
  <rect class="stage" x="55" y="2045" width="1690" height="385" rx="22"/>
  <text class="stageNo" x="82" y="2081">STAGE 06</text>
  <text class="stageTitle" x="82" y="2111">CONTROL-ROOM PRESENTATION AND INDEPENDENT MAP CONTEXT</text>

  <g filter="url(#shadow)">
    <rect class="output" x="95" y="2150" width="920" height="220" rx="18"/>
    <text class="boxTitle" x="122" y="2185">React Dashboard Workspace</text>
    <text class="boxText" x="122" y="2215">Persistent left map + shared right-side tab workspace</text>

    <rect x="122" y="2242" width="116" height="46" rx="10" fill="#0f2435" stroke="#0891b2"/>
    <text class="small center" x="180" y="2270">HOME</text>
    <rect x="250" y="2242" width="116" height="46" rx="10" fill="#0f2435" stroke="#0891b2"/>
    <text class="small center" x="308" y="2270">OPERATIONS</text>
    <rect x="378" y="2242" width="116" height="46" rx="10" fill="#0f2435" stroke="#0891b2"/>
    <text class="small center" x="436" y="2270">WEATHER</text>
    <rect x="506" y="2242" width="116" height="46" rx="10" fill="#0f2435" stroke="#0891b2"/>
    <text class="small center" x="564" y="2270">DEMAND</text>
    <rect x="634" y="2242" width="116" height="46" rx="10" fill="#0f2435" stroke="#0891b2"/>
    <text class="small center" x="692" y="2270">RISK</text>
    <rect x="762" y="2242" width="116" height="46" rx="10" fill="#0f2435" stroke="#0891b2"/>
    <text class="small center" x="820" y="2270">GUIDANCE</text>
    <rect x="890" y="2242" width="100" height="46" rx="10" fill="#0f2435" stroke="#0891b2"/>
    <text class="small center" x="940" y="2270">ANALYTICS</text>

    <text class="boxText" x="122" y="2320">Live snapshot values populate cards, charts, risk gauge, reasoning, and scenario analytics.</text>
    <text class="small" x="122" y="2346">Loading → ready → error/retry state; automatic refresh every five minutes.</text>
  </g>

  <g filter="url(#shadow)">
    <rect class="visual" x="1065" y="2150" width="640" height="220" rx="18"/>
    <text class="boxTitle" x="1092" y="2185">Leaflet Situational-Awareness Map</text>
    <text class="boxText" x="1092" y="2215">NASA Blue Marble / OpenStreetMap base</text>
    <text class="boxText" x="1092" y="2243">NASA GIBS cloud systems + IMERG rainfall</text>
    <text class="boxText" x="1092" y="2271">Dashboard wind marker + optional Open-Meteo wind flow</text>
    <text class="boxText" x="1092" y="2299">Optional NHC storms through cached backend endpoint</text>
    <text class="boxText" x="1092" y="2327">Local boundary + infrastructure fixtures</text>
    <rect x="1092" y="2340" width="456" height="20" rx="10" fill="#2e2050" stroke="#c084fc"/>
    <text class="tag center" x="1320" y="2354" fill="#ddd6fe">VISUAL CONTEXT ONLY — DOES NOT ALTER RECOMMENDATIONS</text>
  </g>

  <path class="lineGreen" d="M900 2030 V2140 H555"/>
  <path class="linePurple" d="M900 2030 V2118 H1385 V2140"/>

  <!-- Footer -->
  <text class="small" x="70" y="2470">Operational boundary: weather and calibration can be live/historical; Version 1 grid conditions remain simulated through MockGridProvider.</text>
  <text class="small" x="1730" y="2470" text-anchor="end">WGDSS engineering reference · generated from the current repository structure</text>
</svg>
